<svg width="87" height="72" viewBox="0 0 87 72" fill="none" xmlns="http://www.w3.org/2000/svg">
<g clip-path="url(#clip0_746_26718)">
<path fill-rule="evenodd" clip-rule="evenodd" d="M32.8488 5.92884C36.0386 5.51898 38.9268 6.2307 41.1995 7.9894C43.5749 9.82565 45.1232 12.7421 45.5637 16.2022L47.3499 30.0805C47.3603 30.1334 47.3677 30.1869 47.3724 30.2406L47.6398 32.3593C48.5398 39.3638 44.6357 44.6504 37.9249 45.5127L20.7739 47.7164C14.069 48.578 8.95918 44.4495 8.05918 37.4451L5.98288 21.2859C5.08287 14.2815 8.98299 8.99537 15.6879 8.13386L32.8488 5.92884ZM36.1585 27.3463C34.9921 27.4962 33.8713 29.6022 32.8782 31.4619C31.5167 34.0162 30.108 36.6593 27.5173 36.9922C25.7657 37.2173 24.0743 36.749 22.5832 36.3336C20.2118 35.6745 19.1532 35.502 18.2609 36.4514C16.475 38.354 14.8865 41.6048 14.1692 43.1962C15.7901 44.488 17.9301 45.0572 20.3915 44.7409L37.5425 42.5372C42.5514 41.8936 45.3463 38.05 44.6643 32.7417L44.4606 31.1567L44.4087 31.1144C42.4422 29.5484 39.0631 26.9731 36.1585 27.3463ZM33.2311 8.90437L16.0702 11.1094C11.0693 11.752 8.27659 15.5972 8.95841 20.9036L11.0347 37.0628C11.2051 38.389 11.5623 39.572 12.0803 40.5904C13.0055 38.7097 14.4377 36.1403 16.0753 34.3972C18.2964 32.0349 21.1146 32.8141 23.3854 33.4438C24.7216 33.8146 25.9845 34.1645 27.135 34.0167C28.1903 33.8811 29.2738 31.8464 30.2329 30.0515C31.5629 27.5496 33.0744 24.7179 35.7762 24.3707C38.7412 23.9898 41.6609 25.4668 43.9304 27.0134L42.588 16.5825C42.2445 13.8782 41.1292 11.7268 39.365 10.3625C37.735 9.10199 35.6155 8.598 33.2311 8.90437ZM19.148 16.1371C21.987 15.7744 24.5927 17.7867 24.9591 20.6231L24.9594 20.6251C25.3241 23.4638 23.3118 26.0695 20.4712 26.4345C17.6305 26.7995 15.0248 24.7872 14.6601 21.9485C14.2951 19.1078 16.3074 16.5021 19.148 16.1371ZM19.5284 19.1129C18.3302 19.2669 17.4814 20.366 17.6356 21.5662C17.7896 22.7643 18.8887 23.6132 20.0888 23.4589C21.287 23.305 22.1378 22.2056 21.9841 21.0094C21.8279 19.8096 20.7268 18.961 19.5284 19.1129Z" fill="#1E1142"/>
<path fill-rule="evenodd" clip-rule="evenodd" d="M19.1482 16.1371C21.9871 15.7744 24.5928 17.7867 24.9593 20.6231L24.9595 20.6251C25.3243 23.4638 23.312 26.0695 20.4713 26.4345C17.6307 26.7995 15.025 24.7872 14.6602 21.9485C14.2952 19.1078 16.3076 16.5021 19.1482 16.1371ZM19.5285 19.1129C18.3304 19.2669 17.4816 20.366 17.6358 21.5662C17.7897 22.7643 18.8888 23.6132 20.089 23.459C21.2871 23.305 22.138 22.2056 21.9843 21.0094C21.8281 19.8096 20.7269 18.961 19.5285 19.1129Z" fill="#2563EA"/>
</g>
<g clip-path="url(#clip1_746_26718)">
<path fill-rule="evenodd" clip-rule="evenodd" d="M70.4368 24.8093C76.9492 26.6592 80.0302 32.4641 78.1021 39.2515L73.6469 54.935C71.7188 61.7225 66.0462 65.0407 59.5339 63.1907L42.8923 58.4634C36.3896 56.6162 33.3181 50.8141 35.2462 44.0266L39.7014 28.3431C41.6295 21.5557 47.2925 18.2347 53.7952 20.0819L70.4368 24.8093Z" fill="white"/>
<path fill-rule="evenodd" clip-rule="evenodd" d="M70.4368 24.8093C76.9492 26.6592 80.0302 32.4641 78.1021 39.2515L73.6469 54.935C71.7188 61.7225 66.0462 65.0407 59.5339 63.1907L42.8923 58.4634C36.3896 56.6162 33.3181 50.8141 35.2462 44.0266L39.7014 28.3431C41.6295 21.5557 47.2925 18.2347 53.7952 20.0819L70.4368 24.8093ZM69.617 27.6951L52.9755 22.9678C48.1254 21.59 44.0475 24.0223 42.5872 29.1629L38.1321 44.8464C36.6712 49.9889 38.862 54.1998 43.7121 55.5776L60.3536 60.3049C65.2153 61.6859 69.3003 59.2578 70.7611 54.1152L75.2163 38.4318C76.6766 33.2911 74.4787 29.0761 69.617 27.6951Z" fill="#1E1142"/>
<path fill-rule="evenodd" clip-rule="evenodd" d="M57.2244 33.7094C58.1189 34.3949 64.2186 39.8746 63.5037 42.5776C62.8339 45.1105 55.5474 46.9735 53.7462 47.2212C53.0444 47.3169 52.2577 47.3737 51.5829 47.1952C51.0608 47.0572 50.6052 46.7774 50.3075 46.2683C50.0775 45.8786 49.4634 44.8369 50.8908 39.424C52.4086 33.677 53.4989 33.051 53.8583 32.8419C55.1344 32.1078 56.6003 33.2299 57.2244 33.7094ZM55.1992 35.9149C54.3451 37.7598 53.1167 42.3814 52.9731 44.3087C54.8293 44.1583 59.146 42.714 60.4525 41.779C59.7737 40.3561 56.7685 37.0292 55.1992 35.9149Z" fill="#FF179C"/>
</g>
<defs>
<clipPath id="clip0_746_26718">
<rect width="48" height="48" fill="white" transform="translate(0 6.11719) rotate(-7.32186)"/>
</clipPath>
<clipPath id="clip1_746_26718">
<rect width="48" height="48" fill="white" transform="translate(40.1699 12.0527) rotate(15.8581)"/>
</clipPath>
</defs>
</svg>
