<svg width="24" height="24" viewBox="0 0 24 24" fill="none" xmlns="http://www.w3.org/2000/svg">
<path d="M13.6589 11.9985L18.6589 6.9985C18.8702 6.77706 18.9865 6.48175 18.9829 6.17571C18.9793 5.86967 18.8561 5.57718 18.6397 5.36076C18.4232 5.14434 18.1308 5.02117 17.8247 5.01757C17.5187 5.01397 17.2234 5.13023 17.0019 5.3415L12.0019 10.3415L7.00192 5.3415C6.89408 5.22847 6.76473 5.13813 6.62147 5.07581C6.47821 5.01349 6.32393 4.98043 6.16771 4.9786C6.0115 4.97676 5.85649 5.00617 5.7118 5.06511C5.56712 5.12405 5.43568 5.21132 5.3252 5.32179C5.21473 5.43226 5.12747 5.5637 5.06853 5.70838C5.00959 5.85307 4.98018 6.00808 4.98201 6.1643C4.98385 6.32051 5.0169 6.47479 5.07923 6.61805C5.14155 6.76131 5.23188 6.89066 5.34492 6.9985L10.3449 11.9985L5.34492 16.9985C5.13365 17.22 5.01739 17.5153 5.02099 17.8213C5.02459 18.1273 5.14776 18.4198 5.36418 18.6362C5.5806 18.8527 5.87309 18.9758 6.17913 18.9794C6.48517 18.983 6.78047 18.8668 7.00192 18.6555L12.0019 13.6555L17.0019 18.6555C17.2234 18.8668 17.5187 18.983 17.8247 18.9794C18.1308 18.9758 18.4232 18.8527 18.6397 18.6362C18.8561 18.4198 18.9793 18.1273 18.9829 17.8213C18.9865 17.5153 18.8702 17.22 18.6589 16.9985L13.6589 11.9985Z" fill="#717972"/>
</svg>
