<svg width="28" height="28" viewBox="0 0 28 28" fill="none" xmlns="http://www.w3.org/2000/svg">
<circle cx="14" cy="14" r="14" fill="white"/>
<path fill-rule="evenodd" clip-rule="evenodd" d="M14 8C14.5624 8 15.0189 8.45678 15.0189 9.0196V12.9793L18.9811 12.9796C19.5435 12.9796 20 13.4364 20 13.9992C20 14.562 19.5435 15.0188 18.9811 15.0188L15.0189 15.0185V18.9804C15.0189 19.5432 14.5624 20 14 20C13.4376 20 12.9811 19.5432 12.9811 18.9804V15.0185L9.01891 15.0188C8.45511 15.0188 8 14.562 8 13.9992C8 13.4364 8.45511 12.9796 9.01891 12.9796L12.9811 12.9793V9.0196C12.9811 8.45678 13.4376 8 14 8Z" fill="#2563EA"/>
</svg>
