<svg width="28" height="28" viewBox="0 0 28 28" fill="none" xmlns="http://www.w3.org/2000/svg">
<circle cx="14" cy="14" r="14" fill="white"/>
<path fill-rule="evenodd" clip-rule="evenodd" d="M13.7951 6C18.097 6 21.5962 9.4992 21.5962 13.8011C21.5962 15.8307 20.8173 17.6818 19.5427 19.0711L22.0507 21.5739C22.2854 21.8086 22.2862 22.1884 22.0515 22.4231C21.9345 22.5416 21.7799 22.6001 21.6261 22.6001C21.4731 22.6001 21.3193 22.5416 21.2015 22.4247L18.6632 19.8934C17.328 20.9628 15.6349 21.603 13.7951 21.603C9.49316 21.603 5.99316 18.103 5.99316 13.8011C5.99316 9.4992 9.49316 6 13.7951 6ZM13.7951 7.20165C10.1557 7.20165 7.19481 10.1617 7.19481 13.8011C7.19481 17.4405 10.1557 20.4013 13.7951 20.4013C17.4336 20.4013 20.3945 17.4405 20.3945 13.8011C20.3945 10.1617 17.4336 7.20165 13.7951 7.20165Z" fill="black"/>
</svg>
